<svg xmlns="http://www.w3.org/2000/svg" width="59" height="69" fill="none" viewBox="0 0 59 69">
    <path fill="#FDBA18" d="M9.726 47.485H20.199V53.469H9.726zM38.893 47.458H49.366V53.442H38.893zM23.939 44.467H34.412V66.90899999999999H23.939z"/>
    <circle cx="12.687" cy="9.507" r="8.498" fill="#FDBA18"/>
    <circle cx="12.722" cy="9.542" r="8.642" stroke="#452F53" stroke-linecap="round" stroke-linejoin="round" stroke-width="1.8"/>
    <path fill="#452F53" stroke="#FDBA18" stroke-width=".7" d="M11.426 10.891l-.255-.27-1.419-1.505c-.36-.381-.934-.381-1.293 0l2.967 1.775zm0 0l.254-.27m-.254.27l.254-.27m0 0l4.152-4.403m-4.152 4.403l4.152-4.403m0 0c.36-.381.934-.381 1.294 0h-1.294zm-7.373 4.33c-.371-.393-.371-1.038 0-1.432l8.667-2.898c.37.393.37 1.039 0 1.432 0 0 0 0 0 0l-5.053 5.359s0 0 0 0c-.183.193-.417.286-.647.286-.23 0-.465-.093-.647-.286 0 0 0 0 0 0l-2.32-2.46z"/>
    <mask id="prefix__a" fill="#fff">
        <path fill-rule="evenodd" d="M24.474 14.229c0-.544.44-.984.984-.984h21.745c.782 0 1.533.31 2.086.864.553.553.864 1.304.864 2.086v5.555l7.867 9.834v2.312c-.001 1.133-.393 2.231-1.11 3.11-.716.877-1.713 1.48-2.823 1.71v9.659c0 .543-.44.983-.984.983-.543 0-.983-.363-.983-.983v-9.66c-1.184-.248-2.234-.924-2.95-1.898-.453.62-1.044 1.123-1.728 1.47-.684.347-1.44.528-2.206.528-.767 0-1.522-.181-2.206-.528-.683-.347-1.275-.85-1.727-1.47-.453.62-1.045 1.123-1.728 1.47-.684.347-1.44.528-2.206.528-.767 0-1.523-.181-2.206-.528-.684-.347-1.275-.85-1.728-1.47-.452.62-1.044 1.123-1.727 1.47-.684.347-1.44.528-2.206.528-.767 0-1.523-.181-2.206-.528-.684-.347-1.276-.85-1.728-1.47-.452.62-1.044 1.123-1.728 1.47-.683.347-1.439.528-2.206.528-.766 0-1.522-.181-2.205-.528-.684-.347-1.276-.85-1.728-1.47-.452.62-1.044 1.123-1.728 1.47-.683.347-1.44.528-2.206.528s-1.522-.181-2.205-.528c-.684-.347-1.276-.85-1.728-1.47-.717.974-1.767 1.65-2.95 1.898H4.917c-1.11-.228-2.107-.832-2.824-1.71-.716-.878-1.108-1.976-1.11-3.109v-2.312l8.294-10.472h38.91v-4.917c0-.26-.104-.51-.289-.695-.184-.184-.434-.288-.695-.288H25.458c-.543 0-.983-.44-.983-.983zm29.613 42.58c1.111.33 2.121.937 2.936 1.763.814.826 1.406 1.845 1.72 2.961.314 1.116.34 2.294.077 3.424-.264 1.129-.81 2.173-1.586 3.035-.092.102-.204.183-.33.239-.125.056-.26.084-.398.084H1.74c-.137 0-.273-.03-.399-.086-.125-.056-.237-.138-.33-.241-.403-.446-.699-.98-.863-1.558-.164-.58-.192-1.189-.082-1.78.11-.592.355-1.15.717-1.632.361-.48.829-.872 1.367-1.143.371-1.675 1.36-3.149 2.767-4.13V44.654c0-.543.44-.984.983-.984.543 0 .984.44.984.984v12.149c1.583-.475 3.285-.36 4.79.322 1.507.682 2.715 1.886 3.402 3.389.037-.005.072-.012.107-.02.045-.01.09-.02.136-.023.138-.019.276-.026.415-.023 1.304.002 2.553.52 3.475 1.442.922.922 1.44 2.172 1.442 3.475-.003.331-.04.66-.112.984h2.079V45.697c0-.782.31-1.533.864-2.086.553-.553 1.304-.864 2.086-.864h7.867c.783 0 1.533.31 2.086.864.554.553.864 1.304.864 2.086V66.35h5.03c-.072-.323-.11-.653-.112-.984.003-1.247.481-2.446 1.337-3.353.855-.908 2.024-1.455 3.269-1.532.55-1.183 1.428-2.185 2.528-2.887 1.1-.703 2.378-1.077 3.683-1.078l1.967.295zm-3.07-20.826c.553.553 1.304.864 2.086.864.783 0 1.533-.311 2.086-.864.554-.554.864-1.304.864-2.087v-.983h-5.9v.983c0 .783.311 1.533.864 2.087zm-3.695 0c.553-.554.864-1.304.864-2.087v-.983h-5.9v.983c0 .783.31 1.533.864 2.087.553.553 1.304.864 2.086.864.783 0 1.533-.311 2.086-.864zm-23.601 0c.553-.554.864-1.304.864-2.087v-.983h-5.9v.983c0 .783.31 1.533.863 2.087.554.553 1.304.864 2.087.864.782 0 1.532-.311 2.086-.864zm-7.867 0c.553-.554.864-1.304.864-2.087v-.983h-5.9v.983c0 .783.31 1.533.863 2.087.554.553 1.304.864 2.086.864.783 0 1.533-.311 2.087-.864zm29.152-12.904l4.72 7.867h5.265l-6.293-7.867h-3.692zm-3.038 7.867h5.465l-4.72-7.867H38.82l3.147 7.867zm-7.723 0h5.605l-3.147-7.867h-4.032l1.574 7.867zm-7.477 0h5.468l-1.574-7.867h-2.32l-1.574 7.867zm-7.612 0h5.606l1.573-7.867h-4.032l-3.147 7.867zm-7.585 0h5.464l3.147-7.867h-3.891l-4.72 7.867zm-7.559 0h5.265l4.72-7.867h-3.691l-6.294 7.867zm28.44 1.967h-5.9v.983c0 .783.31 1.533.864 2.087.553.553 1.303.864 2.086.864.782 0 1.533-.311 2.086-.864.553-.554.864-1.304.864-2.087v-.983zm7.867 0h-5.9v.983c0 .783.31 1.533.864 2.087.553.553 1.303.864 2.086.864.782 0 1.533-.311 2.086-.864.553-.554.864-1.304.864-2.087v-.983zm-37.37 0v.983c0 .783.312 1.533.865 2.087.553.553 1.304.864 2.086.864.783 0 1.533-.311 2.086-.864.553-.554.864-1.304.864-2.087v-.983h-5.9zm9.835 32.452c.007.337.074.67.197.984h5.507c.122-.314.189-.647.196-.984 0-.782-.31-1.533-.864-2.086-.553-.553-1.303-.864-2.086-.864-.053-.003-.107-.003-.16 0-.755.041-1.464.37-1.983.919-.52.549-.808 1.276-.807 2.031zm-1.855.984c-.071-.323-.109-.653-.112-.984-.002-.85.218-1.686.639-2.424.421-.739 1.029-1.354 1.761-1.785-.423-.831-1.074-1.525-1.879-1.998-.804-.474-1.726-.708-2.659-.674-.932.034-1.836.334-2.604.864s-1.368 1.269-1.73 2.129c.564.049 1.111.22 1.6.505.49.283.912.672 1.235 1.137.323.465.539.996.633 1.554.095.558.065 1.13-.087 1.676h3.203zm-8.696 0h3.4c.172-.294.264-.627.267-.966.004-.34-.081-.674-.246-.971-.165-.297-.405-.546-.695-.722-.29-.176-.622-.274-.962-.283-.036 0-.072-.003-.108-.009-.514.012-1.003.224-1.362.592-.36.368-.56.861-.56 1.375-.001.346.091.686.266.984zm22.352-20.652V66.35h9.834V45.697c0-.26-.104-.51-.288-.695-.185-.185-.435-.288-.696-.288h-7.867c-.26 0-.51.103-.695.288-.185.184-.288.434-.288.695zm18.684 19.668c.008.337.074.67.197.984h5.507c.123-.314.19-.647.197-.984.005-.74-.271-1.453-.772-1.998-.5-.544-1.188-.878-1.926-.935-.083-.014-.168-.02-.253-.017-.782 0-1.532.31-2.086.864-.553.553-.864 1.304-.864 2.086zm7.755.984h5.022c.4-.529.688-1.132.849-1.775.16-.643.188-1.312.083-1.966-.105-.654-.342-1.28-.695-1.84-.354-.56-.817-1.044-1.363-1.42-.545-.377-1.16-.639-1.81-.77-.65-.132-1.319-.131-1.968.003-.649.133-1.264.397-1.808.775s-1.006.862-1.358 1.424c.932.35 1.735.976 2.3 1.796.566.82.866 1.793.86 2.79-.003.33-.04.66-.112.983z" clip-rule="evenodd"/>
    </mask>
    <path fill="#452F53" fill-rule="evenodd" stroke="#F6F7F7" stroke-width=".3" d="M24.474 14.229c0-.544.44-.984.984-.984h21.745c.782 0 1.533.31 2.086.864.553.553.864 1.304.864 2.086v5.555l7.867 9.834v2.312c-.001 1.133-.393 2.231-1.11 3.11-.716.877-1.713 1.48-2.823 1.71v9.659c0 .543-.44.983-.984.983-.543 0-.983-.363-.983-.983v-9.66c-1.184-.248-2.234-.924-2.95-1.898-.453.62-1.044 1.123-1.728 1.47-.684.347-1.44.528-2.206.528-.767 0-1.522-.181-2.206-.528-.683-.347-1.275-.85-1.727-1.47-.453.62-1.045 1.123-1.728 1.47-.684.347-1.44.528-2.206.528-.767 0-1.523-.181-2.206-.528-.684-.347-1.275-.85-1.728-1.47-.452.62-1.044 1.123-1.727 1.47-.684.347-1.44.528-2.206.528-.767 0-1.523-.181-2.206-.528-.684-.347-1.276-.85-1.728-1.47-.452.62-1.044 1.123-1.728 1.47-.683.347-1.439.528-2.206.528-.766 0-1.522-.181-2.205-.528-.684-.347-1.276-.85-1.728-1.47-.452.62-1.044 1.123-1.728 1.47-.683.347-1.44.528-2.206.528s-1.522-.181-2.205-.528c-.684-.347-1.276-.85-1.728-1.47-.717.974-1.767 1.65-2.95 1.898H4.917c-1.11-.228-2.107-.832-2.824-1.71-.716-.878-1.108-1.976-1.11-3.109v-2.312l8.294-10.472h38.91v-4.917c0-.26-.104-.51-.289-.695-.184-.184-.434-.288-.695-.288H25.458c-.543 0-.983-.44-.983-.983zm29.613 42.58c1.111.33 2.121.937 2.936 1.763.814.826 1.406 1.845 1.72 2.961.314 1.116.34 2.294.077 3.424-.264 1.129-.81 2.173-1.586 3.035-.092.102-.204.183-.33.239-.125.056-.26.084-.398.084H1.74c-.137 0-.273-.03-.399-.086-.125-.056-.237-.138-.33-.241-.403-.446-.699-.98-.863-1.558-.164-.58-.192-1.189-.082-1.78.11-.592.355-1.15.717-1.632.361-.48.829-.872 1.367-1.143.371-1.675 1.36-3.149 2.767-4.13V44.654c0-.543.44-.984.983-.984.543 0 .984.44.984.984v12.149c1.583-.475 3.285-.36 4.79.322 1.507.682 2.715 1.886 3.402 3.389.037-.005.072-.012.107-.02.045-.01.09-.02.136-.023.138-.019.276-.026.415-.023 1.304.002 2.553.52 3.475 1.442.922.922 1.44 2.172 1.442 3.475-.003.331-.04.66-.112.984h2.079V45.697c0-.782.31-1.533.864-2.086.553-.553 1.304-.864 2.086-.864h7.867c.783 0 1.533.31 2.086.864.554.553.864 1.304.864 2.086V66.35h5.03c-.072-.323-.11-.653-.112-.984.003-1.247.481-2.446 1.337-3.353.855-.908 2.024-1.455 3.269-1.532.55-1.183 1.428-2.185 2.528-2.887 1.1-.703 2.378-1.077 3.683-1.078l1.967.295zm-3.07-20.826c.553.553 1.304.864 2.086.864.783 0 1.533-.311 2.086-.864.554-.554.864-1.304.864-2.087v-.983h-5.9v.983c0 .783.311 1.533.864 2.087zm-3.695 0c.553-.554.864-1.304.864-2.087v-.983h-5.9v.983c0 .783.31 1.533.864 2.087.553.553 1.304.864 2.086.864.783 0 1.533-.311 2.086-.864zm-23.601 0c.553-.554.864-1.304.864-2.087v-.983h-5.9v.983c0 .783.31 1.533.863 2.087.554.553 1.304.864 2.087.864.782 0 1.532-.311 2.086-.864zm-7.867 0c.553-.554.864-1.304.864-2.087v-.983h-5.9v.983c0 .783.31 1.533.863 2.087.554.553 1.304.864 2.086.864.783 0 1.533-.311 2.087-.864zm29.152-12.904l4.72 7.867h5.265l-6.293-7.867h-3.692zm-3.038 7.867h5.465l-4.72-7.867H38.82l3.147 7.867zm-7.723 0h5.605l-3.147-7.867h-4.032l1.574 7.867zm-7.477 0h5.468l-1.574-7.867h-2.32l-1.574 7.867zm-7.612 0h5.606l1.573-7.867h-4.032l-3.147 7.867zm-7.585 0h5.464l3.147-7.867h-3.891l-4.72 7.867zm-7.559 0h5.265l4.72-7.867h-3.691l-6.294 7.867zm28.44 1.967h-5.9v.983c0 .783.31 1.533.864 2.087.553.553 1.303.864 2.086.864.782 0 1.533-.311 2.086-.864.553-.554.864-1.304.864-2.087v-.983zm7.867 0h-5.9v.983c0 .783.31 1.533.864 2.087.553.553 1.303.864 2.086.864.782 0 1.533-.311 2.086-.864.553-.554.864-1.304.864-2.087v-.983zm-37.37 0v.983c0 .783.312 1.533.865 2.087.553.553 1.304.864 2.086.864.783 0 1.533-.311 2.086-.864.553-.554.864-1.304.864-2.087v-.983h-5.9zm9.835 32.452c.007.337.074.67.197.984h5.507c.122-.314.189-.647.196-.984 0-.782-.31-1.533-.864-2.086-.553-.553-1.303-.864-2.086-.864-.053-.003-.107-.003-.16 0-.755.041-1.464.37-1.983.919-.52.549-.808 1.276-.807 2.031zm-1.855.984c-.071-.323-.109-.653-.112-.984-.002-.85.218-1.686.639-2.424.421-.739 1.029-1.354 1.761-1.785-.423-.831-1.074-1.525-1.879-1.998-.804-.474-1.726-.708-2.659-.674-.932.034-1.836.334-2.604.864s-1.368 1.269-1.73 2.129c.564.049 1.111.22 1.6.505.49.283.912.672 1.235 1.137.323.465.539.996.633 1.554.095.558.065 1.13-.087 1.676h3.203zm-8.696 0h3.4c.172-.294.264-.627.267-.966.004-.34-.081-.674-.246-.971-.165-.297-.405-.546-.695-.722-.29-.176-.622-.274-.962-.283-.036 0-.072-.003-.108-.009-.514.012-1.003.224-1.362.592-.36.368-.56.861-.56 1.375-.001.346.091.686.266.984zm22.352-20.652V66.35h9.834V45.697c0-.26-.104-.51-.288-.695-.185-.185-.435-.288-.696-.288h-7.867c-.26 0-.51.103-.695.288-.185.184-.288.434-.288.695zm18.684 19.668c.008.337.074.67.197.984h5.507c.123-.314.19-.647.197-.984.005-.74-.271-1.453-.772-1.998-.5-.544-1.188-.878-1.926-.935-.083-.014-.168-.02-.253-.017-.782 0-1.532.31-2.086.864-.553.553-.864 1.304-.864 2.086zm7.755.984h5.022c.4-.529.688-1.132.849-1.775.16-.643.188-1.312.083-1.966-.105-.654-.342-1.28-.695-1.84-.354-.56-.817-1.044-1.363-1.42-.545-.377-1.16-.639-1.81-.77-.65-.132-1.319-.131-1.968.003-.649.133-1.264.397-1.808.775s-1.006.862-1.358 1.424c.932.35 1.735.976 2.3 1.796.566.82.866 1.793.86 2.79-.003.33-.04.66-.112.983z" clip-rule="evenodd" mask="url(#prefix__a)"/>
    <path fill="#452F53" stroke="#F6F7F7" stroke-width=".2" d="M40.322 48.55h-.1V52.684h8.068V48.55h-7.967zm8.851 5.9H39.34c-.234 0-.459-.093-.624-.258-.166-.166-.26-.39-.26-.625v-5.9c0-.235.094-.46.26-.625.165-.166.39-.259.624-.259h9.834c.234 0 .46.093.625.26.165.165.258.39.258.624v5.9c0 .234-.093.46-.258.625-.166.166-.39.258-.625.258zM18.677 52.684h.1V48.55H10.71V52.684h7.967zm-8.85-5.9h9.833c.235 0 .46.092.625.258.166.166.259.39.259.625v5.9c0 .234-.093.46-.259.625-.166.166-.39.258-.625.258H9.826c-.234 0-.459-.093-.624-.258-.166-.166-.259-.39-.259-.625v-5.9c0-.235.093-.46.259-.625.165-.166.39-.259.624-.259z"/>
    <path fill="#452F53" d="M32.476 54.55h-.994c-.263 0-.516.105-.702.29-.187.187-.291.44-.291.703 0 .264.104.517.29.703.187.186.44.29.703.29h.994c.263 0 .516-.104.702-.29.187-.187.291-.44.291-.703 0-.263-.105-.516-.29-.702-.187-.186-.44-.291-.703-.291z"/>
    <circle cx="52.992" cy="51.793" r=".94" fill="#452F53"/>
    <circle cx="5.983" cy="41.254" r=".94" fill="#452F53"/>
</svg>
