<svg xmlns="http://www.w3.org/2000/svg" width="59" height="60" fill="none" viewBox="0 0 59 60">
    <circle cx="10.093" cy="10.093" r="9.031" fill="#BBEAEA"/>
    <circle cx="10.141" cy="10.141" r="9.241" stroke="#452F53" stroke-linecap="round" stroke-linejoin="round" stroke-width="1.8"/>
    <path stroke="#452F53" stroke-linecap="round" stroke-width="1.6" d="M9.966 6.038L9.966 14.261M5.714 10.005L13.937 10.005"/>
    <path fill="#BBEAEA" d="M36.111 47.997c0 2.57 2.118 7.708 1.79 9.346-1.992 2.268-10.145.659-14.17.659-8.479 0-12.88-6.804-17.137-11.205 0 0 5.687-7.656 14.166-7.656 8.478 0 15.351 8.856 15.351 8.856z"/>
    <circle cx="20.759" cy="30.875" r="7.085" fill="#BBEAEA"/>
    <path stroke="#452F53" stroke-width="2" d="M6.751 46.797c2.791-4.941 7.825-7.656 14.007-7.656 6.958 0 12.912 4.299 15.352 10.385.513 1.414 1.36 4.696 1.355 8.146"/>
    <circle cx="20.759" cy="30.875" r="7.266" stroke="#452F53" stroke-linecap="round" stroke-linejoin="round" stroke-width="2"/>
    <path fill="#BBEAEA" d="M54.707 44.82c-2.965 4.613-6.78 8.593-15.159 12.522 0 0 1.977-11.864-9.227-18.455 0 0 1.612-3.355 10.09-3.355 8.479 0 14.296 9.287 14.296 9.287z"/>
    <circle cx="40.412" cy="27.266" r="7.085" fill="#BBEAEA"/>
    <path stroke="#452F53" stroke-linecap="round" stroke-width="2" d="M54.05 45.148c-2.44-6.086-6.68-9.616-13.638-9.616-3.61 0-6.95 1.157-9.669 3.12"/>
    <circle cx="40.409" cy="27.266" r="7.266" stroke="#452F53" stroke-linecap="round" stroke-linejoin="round" stroke-width="2"/>
    <path stroke="#452F53" stroke-linecap="round" stroke-linejoin="round" stroke-width="2" d="M1.976 31.636c0 14.925 12.541 27.024 28.012 27.024C45.458 58.66 58 46.56 58 31.636 58 16.712 45.459 4.613 29.988 4.613"/>
</svg>
